<svg width="349" height="25" viewBox="0 0 349 25" fill="none" xmlns="http://www.w3.org/2000/svg">
<path d="M332.327 24V0.727264H340.191C342.009 0.727264 343.501 1.03787 344.668 1.65908C345.835 2.27272 346.698 3.11742 347.259 4.19317C347.819 5.26893 348.1 6.49242 348.1 7.86363C348.1 9.23484 347.819 10.4508 347.259 11.5114C346.698 12.572 345.838 13.4053 344.679 14.0114C343.52 14.6098 342.039 14.9091 340.236 14.9091H333.872V12.3636H340.145C341.388 12.3636 342.388 12.1818 343.145 11.8182C343.91 11.4545 344.463 10.9394 344.804 10.2727C345.153 9.59848 345.327 8.79545 345.327 7.86363C345.327 6.93181 345.153 6.11742 344.804 5.42045C344.456 4.72348 343.899 4.1856 343.134 3.80681C342.369 3.42045 341.357 3.22726 340.1 3.22726H335.145V24H332.327ZM343.282 13.5454L349.009 24H345.736L340.1 13.5454H343.282Z" fill="black"/>
<path d="M307.122 24V0.727264H321.167V3.22726H309.94V11.0909H320.44V13.5909H309.94V21.5H321.349V24H307.122Z" fill="black"/>
<path d="M293.17 8C292.92 7.23485 292.59 6.54924 292.181 5.94318C291.78 5.32954 291.299 4.80682 290.738 4.375C290.185 3.94318 289.556 3.61363 288.852 3.38636C288.147 3.15909 287.374 3.04545 286.533 3.04545C285.155 3.04545 283.901 3.40151 282.772 4.11363C281.643 4.82576 280.746 5.875 280.079 7.26136C279.412 8.64773 279.079 10.3485 279.079 12.3636C279.079 14.3788 279.416 16.0795 280.09 17.4659C280.764 18.8523 281.677 19.9015 282.829 20.6136C283.98 21.3258 285.276 21.6818 286.715 21.6818C288.049 21.6818 289.223 21.3977 290.238 20.8295C291.261 20.2538 292.056 19.4432 292.624 18.3977C293.2 17.3447 293.488 16.1061 293.488 14.6818L294.352 14.8636H287.352V12.3636H296.215V14.8636C296.215 16.7803 295.806 18.447 294.988 19.8636C294.177 21.2803 293.056 22.3788 291.624 23.1591C290.2 23.9318 288.564 24.3182 286.715 24.3182C284.655 24.3182 282.844 23.8333 281.283 22.8636C279.73 21.8939 278.518 20.5151 277.647 18.7273C276.783 16.9394 276.352 14.8182 276.352 12.3636C276.352 10.5227 276.598 8.86742 277.09 7.39772C277.59 5.92045 278.295 4.66288 279.204 3.625C280.113 2.58712 281.189 1.79166 282.431 1.23863C283.674 0.685603 285.041 0.409088 286.533 0.409088C287.761 0.409088 288.905 0.594694 289.965 0.965906C291.033 1.32954 291.984 1.84848 292.818 2.52272C293.658 3.18939 294.359 3.98863 294.92 4.92045C295.48 5.84469 295.867 6.87121 296.079 8H293.17Z" fill="black"/>
<path d="M265.53 0.727264V24H262.712V0.727264H265.53Z" fill="black"/>
<path d="M237.851 24V0.727264H251.805V3.22726H240.669V11.0909H250.76V13.5909H240.669V24H237.851Z" fill="black"/>
<path d="M213.771 24V0.727264H216.589V21.5H227.407V24H213.771Z" fill="black"/>
<path d="M202.04 0.727264V24H199.222V0.727264H202.04Z" fill="black"/>
<path d="M169.454 24V0.727264H172.273V11.0909H184.682V0.727264H187.5V24H184.682V13.5909H172.273V24H169.454Z" fill="black"/>
<path d="M125.013 0.727264H128.24L134.695 11.5909H134.968L141.422 0.727264H144.65L136.24 14.4091V24H133.422V14.4091L125.013 0.727264Z" fill="black"/>
<path d="M92.4644 0.727264H95.8281L103.737 20.0454H104.01L111.919 0.727264H115.283V24H112.646V6.31817H112.419L105.146 24H102.601L95.3281 6.31817H95.1008V24H92.4644V0.727264Z" fill="black"/>
<path d="M57.9157 0.727264H61.2793L69.1884 20.0454H69.4611L77.3702 0.727264H80.7339V24H78.0975V6.31817H77.8702L70.5975 24H68.052L60.7793 6.31817H60.552V24H57.9157V0.727264Z" fill="black"/>
<path d="M47.097 12.3636C47.097 14.8182 46.6539 16.9394 45.7675 18.7273C44.8811 20.5151 43.6652 21.8939 42.1198 22.8636C40.5743 23.8333 38.8092 24.3182 36.8243 24.3182C34.8395 24.3182 33.0743 23.8333 31.5289 22.8636C29.9834 21.8939 28.7675 20.5151 27.8811 18.7273C26.9948 16.9394 26.5516 14.8182 26.5516 12.3636C26.5516 9.90909 26.9948 7.78788 27.8811 6C28.7675 4.21212 29.9834 2.83333 31.5289 1.86363C33.0743 0.893937 34.8395 0.409088 36.8243 0.409088C38.8092 0.409088 40.5743 0.893937 42.1198 1.86363C43.6652 2.83333 44.8811 4.21212 45.7675 6C46.6539 7.78788 47.097 9.90909 47.097 12.3636ZM44.3698 12.3636C44.3698 10.3485 44.0327 8.64773 43.3584 7.26136C42.6917 5.875 41.7864 4.82576 40.6425 4.11363C39.5061 3.40151 38.2334 3.04545 36.8243 3.04545C35.4152 3.04545 34.1387 3.40151 32.9948 4.11363C31.8584 4.82576 30.9531 5.875 30.2789 7.26136C29.6122 8.64773 29.2789 10.3485 29.2789 12.3636C29.2789 14.3788 29.6122 16.0795 30.2789 17.4659C30.9531 18.8523 31.8584 19.9015 32.9948 20.6136C34.1387 21.3258 35.4152 21.6818 36.8243 21.6818C38.2334 21.6818 39.5061 21.3258 40.6425 20.6136C41.7864 19.9015 42.6917 18.8523 43.3584 17.4659C44.0327 16.0795 44.3698 14.3788 44.3698 12.3636Z" fill="black"/>
<path d="M0.545456 3.22726V0.727264H18V3.22726H10.6818V24H7.86364V3.22726H0.545456Z" fill="var(--texto)"/>
</svg>
